# xmcd
#
# Track frame offsets:
#	150
#	12035
#	20953
#	31637
#	42626
#	56467
#	66902
#	77624
#	88078
#	100754
#	112435
#	124774
#
# Disc length: 1817
#
# Revision: 1
# Processed by: cddbd v1.5.1PL0 Copyright (c) Steve Scherf et al.
# Submitted via: CDex 1.51
# Normalized: r0:TRMNUM
#
DISCID=9d07170c
DTITLE=NED MILLER - IN THE NAME OF LOVE
DYEAR=1900
DGENRE=Country
TTITLE0=Only A Fool
TTITLE1=In The Name Of Love
TTITLE2=A Broken Heart
TTITLE3=Just can-t Pretend No More
TTITLE4=Someone Who Cares
TTITLE5=There Lives A King
TTITLE6=A Memory For Tomorrow
TTITLE7=Cheated
TTITLE8=River Rat
TTITLE9=Endless
TTITLE10=Roller Skates,Red Wagons,& Dolls
TTITLE11=Southbound
EXTD=
EXTT0=
EXTT1=
EXTT2=
EXTT3=
EXTT4=
EXTT5=
EXTT6=
EXTT7=
EXTT8=
EXTT9=
EXTT10=
EXTT11=
PLAYORDER=
